<?xml version="1.0" standalone="no"?>
<!DOCTYPE svg PUBLIC "-//W3C//DTD SVG 20010904//EN"
 "http://www.w3.org/TR/2001/REC-SVG-20010904/DTD/svg10.dtd">
<svg version="1.0" xmlns="http://www.w3.org/2000/svg"
 width="832.000000pt" height="832.000000pt" viewBox="0 0 832.000000 832.000000"
 preserveAspectRatio="xMidYMid meet">
<metadata>
Created by potrace 1.11, written by Peter Selinger 2001-2013
</metadata>
<g transform="translate(0.000000,832.000000) scale(0.100000,-0.100000)"
fill="#000000" stroke="none">
<path d="M5217 7854 c-2 -2 -92 -13 -157 -19 -19 -2 -62 -6 -95 -9 -33 -3 -76
-8 -95 -10 -19 -3 -60 -7 -90 -11 -30 -3 -66 -8 -80 -10 -14 -2 -63 -7 -110
-11 -47 -3 -87 -7 -90 -9 -3 -2 -43 -6 -90 -10 -47 -3 -92 -8 -100 -10 -8 -2
-44 -7 -80 -10 -36 -4 -76 -8 -90 -10 -14 -2 -57 -7 -95 -10 -39 -3 -79 -7
-90 -9 -11 -2 -54 -7 -95 -11 -41 -4 -82 -8 -90 -10 -8 -2 -49 -6 -90 -10 -41
-3 -86 -8 -100 -10 -14 -2 -52 -6 -85 -10 -33 -3 -76 -7 -95 -10 -19 -2 -62
-7 -95 -10 -33 -3 -71 -8 -85 -10 -14 -2 -56 -6 -95 -10 -38 -3 -83 -8 -100
-10 -89 -12 -119 -15 -275 -30 -30 -3 -64 -7 -75 -9 -11 -2 -51 -7 -90 -10
-38 -4 -88 -9 -110 -12 -22 -2 -62 -6 -90 -9 -27 -3 -66 -8 -85 -10 -19 -3
-60 -7 -90 -10 -73 -7 -147 -15 -190 -20 -19 -2 -60 -7 -90 -10 -30 -3 -71 -8
-90 -10 -19 -2 -57 -6 -85 -9 -68 -8 -118 -13 -195 -21 -36 -3 -76 -8 -90 -10
-14 -2 -54 -7 -90 -10 -36 -3 -83 -8 -105 -11 -22 -4 -56 -7 -75 -9 -64 -6
-175 -17 -190 -20 -8 -2 -49 -6 -90 -9 -41 -4 -86 -9 -100 -11 -14 -3 -52 -7
-85 -10 -33 -3 -76 -7 -95 -10 -19 -2 -55 -7 -80 -9 -25 -3 -72 -8 -105 -11
-112 -12 -203 -72 -257 -170 -19 -34 -23 -55 -23 -135 0 -52 4 -124 8 -160 12
-96 16 -129 22 -190 13 -124 16 -156 20 -180 2 -14 6 -52 9 -85 10 -103 17
-169 21 -195 3 -25 12 -101 20 -190 4 -42 10 -99 20 -180 6 -49 13 -123 20
-200 3 -36 8 -81 10 -100 2 -19 7 -80 10 -135 4 -55 8 -107 10 -116 2 -8 6
-51 10 -95 3 -43 8 -90 10 -104 2 -14 6 -54 10 -90 4 -36 8 -76 10 -90 2 -14
6 -50 10 -80 3 -30 8 -71 10 -90 10 -79 16 -126 45 -360 16 -135 32 -267 35
-295 3 -27 8 -66 10 -85 5 -39 11 -96 20 -185 3 -33 8 -73 10 -90 2 -16 9 -77
15 -135 6 -58 13 -121 15 -140 3 -19 7 -60 10 -90 3 -30 7 -71 9 -90 5 -37 12
-105 21 -192 3 -29 8 -69 10 -88 2 -19 7 -60 10 -90 3 -30 8 -71 10 -90 3 -19
7 -64 10 -100 3 -35 8 -78 10 -95 7 -53 14 -118 20 -190 4 -38 8 -77 10 -85 2
-8 6 -44 10 -80 3 -36 8 -81 10 -100 2 -19 7 -57 10 -85 7 -69 14 -142 21
-195 5 -51 10 -97 19 -185 4 -33 8 -70 10 -82 2 -12 6 -57 10 -100 4 -43 8
-85 10 -93 2 -8 7 -51 10 -95 4 -44 8 -87 11 -95 2 -8 6 -42 9 -75 3 -33 7
-76 10 -95 6 -42 17 -143 20 -185 9 -111 20 -176 36 -220 43 -115 166 -196
289 -190 54 3 171 14 197 19 10 2 56 7 103 11 47 4 87 8 90 10 3 1 41 6 84 10
43 4 86 8 95 10 9 1 50 6 91 10 41 4 82 8 90 10 8 1 51 6 94 10 43 4 87 8 96
10 9 2 53 6 96 10 43 4 88 9 99 11 11 2 49 7 85 10 36 3 76 7 90 9 14 2 52 7
85 10 33 3 80 8 105 11 25 2 63 7 85 9 69 7 159 16 185 20 14 2 50 6 80 9 30
3 80 8 110 12 30 3 71 7 90 9 19 2 55 6 80 9 105 12 167 19 190 21 14 1 54 5
90 10 36 4 76 9 90 10 164 16 265 27 278 30 10 1 51 6 92 10 41 4 82 8 90 10
8 2 49 6 90 10 41 3 86 8 100 10 14 2 54 6 90 10 36 3 81 8 100 10 19 2 62 7
95 10 33 4 71 8 85 10 14 2 54 6 90 10 36 4 76 8 90 10 14 2 52 7 85 9 33 3
83 8 110 11 95 11 120 14 175 20 30 3 71 8 90 10 19 2 60 7 90 10 30 3 71 8
90 10 19 2 64 7 100 10 36 4 76 8 90 10 14 2 54 6 90 10 182 17 219 24 279 53
67 32 125 103 147 179 15 52 15 163 -1 255 -2 13 -11 91 -20 173 -8 83 -17
164 -20 180 -2 17 -6 62 -10 100 -6 68 -9 94 -20 180 -3 22 -7 66 -9 97 l-5
58 401 0 c356 0 403 2 428 17 54 31 53 24 53 572 l0 510 508 0 c552 -1 551 -1
577 56 17 36 17 1153 0 1189 -27 60 -13 58 -573 58 l-512 0 0 513 c0 510 0
513 -22 543 -12 18 -34 33 -53 37 -42 10 -1114 10 -1156 0 -23 -5 -32 -3 -33
7 0 7 -2 22 -4 33 -3 11 -7 47 -9 80 -3 33 -8 83 -11 110 -20 171 -32 282 -40
360 -4 33 -8 74 -11 90 -2 17 -6 59 -9 95 -4 36 -8 76 -10 90 -2 14 -6 52 -10
85 -3 33 -8 80 -11 105 -2 25 -7 65 -9 90 -3 25 -7 63 -10 85 -2 22 -7 67 -10
100 -6 64 -13 118 -20 175 -6 52 -13 117 -20 190 -6 61 -20 167 -28 200 -14
66 -96 158 -165 187 -32 13 -138 34 -145 27z"/>
</g>
</svg>
